<svg xmlns="http://www.w3.org/2000/svg" viewBox="0 0 512 512" fill="none">
  <!-- Background circle -->
  <circle cx="256" cy="256" r="256" fill="#2B6080"/>

  <!-- Figure skate boot - feminine style with higher heel and sleek shape -->
  <!-- Boot body -->
  <path d="
    M220 100
    C215 100 208 105 206 115
    L180 245
    C178 255 180 262 185 268
    L185 285
    C175 290 168 300 168 312
    L168 318
    C168 326 174 332 182 333
    L340 345
    C358 346 372 336 375 320
    L377 310
    C378 298 368 288 356 286
    L270 278
    L300 115
    C302 105 296 100 288 100
    Z
  " fill="white"/>

  <!-- Boot opening / cuff - elegant scalloped top -->
  <path d="
    M214 108
    C214 102 220 97 228 97
    L280 97
    C288 97 294 102 293 108
    L290 125
    L210 125
    Z
  " fill="white" stroke="#BBDAED" stroke-width="2"/>

  <!-- Inner ankle curve detail -->
  <path d="M210 125 Q205 170 195 220" stroke="#BBDAED" stroke-width="3" fill="none" stroke-linecap="round"/>
  <path d="M290 125 Q285 170 275 220" stroke="#BBDAED" stroke-width="3" fill="none" stroke-linecap="round"/>

  <!-- Lace eyelets and laces -->
  <circle cx="238" cy="140" r="3" fill="#2B6080"/>
  <circle cx="258" cy="140" r="3" fill="#2B6080"/>
  <line x1="238" y1="140" x2="258" y2="140" stroke="#2B6080" stroke-width="2"/>

  <circle cx="236" cy="158" r="3" fill="#2B6080"/>
  <circle cx="256" cy="158" r="3" fill="#2B6080"/>
  <line x1="236" y1="158" x2="256" y2="158" stroke="#2B6080" stroke-width="2"/>

  <circle cx="234" cy="176" r="3" fill="#2B6080"/>
  <circle cx="254" cy="176" r="3" fill="#2B6080"/>
  <line x1="234" y1="176" x2="254" y2="176" stroke="#2B6080" stroke-width="2"/>

  <circle cx="232" cy="194" r="3" fill="#2B6080"/>
  <circle cx="252" cy="194" r="3" fill="#2B6080"/>
  <line x1="232" y1="194" x2="252" y2="194" stroke="#2B6080" stroke-width="2"/>

  <circle cx="230" cy="212" r="3" fill="#2B6080"/>
  <circle cx="250" cy="212" r="3" fill="#2B6080"/>
  <line x1="230" y1="212" x2="250" y2="212" stroke="#2B6080" stroke-width="2"/>

  <!-- Lace bow at top -->
  <path d="M244 132 C236 126 228 128 232 134 C228 128 224 132 230 138" stroke="#2B6080" stroke-width="2.5" fill="none" stroke-linecap="round"/>
  <path d="M252 132 C260 126 268 128 264 134 C268 128 272 132 266 138" stroke="#2B6080" stroke-width="2.5" fill="none" stroke-linecap="round"/>

  <!-- Heel definition -->
  <path d="M185 268 C182 275 180 285 185 295 L190 310" stroke="#BBDAED" stroke-width="3" fill="none" stroke-linecap="round"/>

  <!-- Blade mount plate -->
  <rect x="170" y="330" width="195" height="8" rx="4" fill="#e0e0e0"/>

  <!-- Blade - elegant curved figure skating blade -->
  <path d="
    M140 365
    C135 358 138 348 150 345
    L370 356
    C385 357 392 350 390 342
    C388 335 378 330 365 329
    L155 318
    C142 317 132 325 130 338
    C128 348 133 358 140 365
    Z
  " fill="#D4D4D4"/>

  <!-- Blade edge - sharp silver bottom -->
  <path d="M138 358 Q260 370 388 348" stroke="#94E0B9" stroke-width="5" fill="none" stroke-linecap="round"/>

  <!-- Toe pick - jagged teeth -->
  <path d="M140 340 L128 344 L126 350 L130 354 L125 348 L120 352 L124 358 L138 362" fill="#D4D4D4" stroke="#b0b0b0" stroke-width="1"/>

  <!-- Sparkle accents -->
  <g fill="#94E0B9" opacity="0.8">
    <polygon points="380,120 383,128 391,131 383,134 380,142 377,134 369,131 377,128"/>
    <polygon points="130,180 132,186 138,188 132,190 130,196 128,190 122,188 128,186" transform="scale(0.8) translate(20,30)"/>
    <polygon points="400,220 402,226 408,228 402,230 400,236 398,230 392,228 398,226" transform="scale(0.7) translate(100,50)"/>
  </g>
</svg>
